<svg width="214" height="214" viewBox="0 0 214 214" fill="none" xmlns="http://www.w3.org/2000/svg">
<g filter="url(#filter0_d_1_337)">
<path d="M99.0004 19.1097C103.394 15.3114 109.91 15.3114 114.304 19.1097L117.607 21.9646C120.724 24.6593 125.029 25.5156 128.94 24.219L133.084 22.8453C138.597 21.0176 144.616 23.5109 147.223 28.7017L149.181 32.6031C151.03 36.2857 154.68 38.7242 158.789 39.0231L163.143 39.3397C168.936 39.761 173.543 44.368 173.965 50.161L174.281 54.515C174.58 58.6247 177.019 62.2743 180.701 64.1231L184.603 66.0818C189.793 68.6879 192.287 74.7073 190.459 80.2205L189.085 84.3642C187.789 88.2755 188.645 92.5805 191.34 95.6978L194.195 99.0005C197.993 103.395 197.993 109.91 194.195 114.304L191.34 117.607C188.645 120.724 187.789 125.029 189.085 128.94L190.459 133.084C192.287 138.597 189.793 144.617 184.603 147.223L180.701 149.181C177.019 151.03 174.58 154.68 174.281 158.79L173.965 163.144C173.543 168.937 168.936 173.544 163.143 173.965L158.789 174.281C154.68 174.58 151.03 177.019 149.181 180.701L147.223 184.603C144.616 189.794 138.597 192.287 133.084 190.459L128.94 189.086C125.029 187.789 120.724 188.645 117.607 191.34L114.304 194.195C109.91 197.993 103.394 197.993 99.0004 194.195L95.6977 191.34C92.5804 188.645 88.2754 187.789 84.3641 189.086L80.2204 190.459C74.7072 192.287 68.6878 189.794 66.0817 184.603L64.123 180.701C62.2742 177.019 58.6246 174.58 54.5148 174.281L50.1608 173.965C44.3679 173.544 39.7609 168.937 39.3396 163.144L39.023 158.79C38.7241 154.68 36.2855 151.03 32.603 149.181L28.7016 147.223C23.5108 144.617 21.0175 138.597 22.8452 133.084L24.2189 128.94C25.5155 125.029 24.6592 120.724 21.9645 117.607L19.1096 114.304C15.3112 109.91 15.3112 103.395 19.1096 99.0005L21.9645 95.6978C24.6592 92.5805 25.5155 88.2755 24.2189 84.3642L22.8452 80.2205C21.0175 74.7073 23.5108 68.6879 28.7016 66.0818L32.603 64.1231C36.2855 62.2743 38.7241 58.6247 39.023 54.5149L39.3396 50.161C39.7609 44.368 44.3679 39.761 50.1609 39.3397L54.5148 39.0231C58.6246 38.7242 62.2742 36.2856 64.123 32.6031L66.0817 28.7017C68.6878 23.5109 74.7072 21.0176 80.2204 22.8453L84.3641 24.219C88.2754 25.5156 92.5804 24.6593 95.6977 21.9646L99.0004 19.1097Z" fill="#FFC800"/>
</g>
<defs>
<filter id="filter0_d_1_337" x="14.2608" y="15.261" width="184.783" height="184.782" filterUnits="userSpaceOnUse" color-interpolation-filters="sRGB">
<feFlood flood-opacity="0" result="BackgroundImageFix"/>
<feColorMatrix in="SourceAlpha" type="matrix" values="0 0 0 0 0 0 0 0 0 0 0 0 0 0 0 0 0 0 127 0" result="hardAlpha"/>
<feOffset dy="1"/>
<feGaussianBlur stdDeviation="1"/>
<feComposite in2="hardAlpha" operator="out"/>
<feColorMatrix type="matrix" values="0 0 0 0 0 0 0 0 0 0 0 0 0 0 0 0 0 0 0.15 0"/>
<feBlend mode="normal" in2="BackgroundImageFix" result="effect1_dropShadow_1_337"/>
<feBlend mode="normal" in="SourceGraphic" in2="effect1_dropShadow_1_337" result="shape"/>
</filter>
</defs>
</svg>
